<?xml version="1.0" encoding="UTF-8" standalone="no"?>
<!DOCTYPE svg PUBLIC "-//W3C//DTD SVG 1.1//EN" "http://www.w3.org/Graphics/SVG/1.1/DTD/svg11.dtd">
<svg width="100%" height="100%" viewBox="0 0 820 620" version="1.1" xmlns="http://www.w3.org/2000/svg" xmlns:xlink="http://www.w3.org/1999/xlink" xml:space="preserve" xmlns:serif="http://www.serif.com/" style="fill-rule:evenodd;clip-rule:evenodd;stroke-linecap:round;stroke-linejoin:round;stroke-miterlimit:1.5;">
    <g transform="matrix(1,0,0,1,-0.849341,6.09831)">
        <g transform="matrix(1,0,0,1,-6.9399,-129.774)">
            <g transform="matrix(0.999935,0.00359454,0.00359454,0.801117,-1.12694,62.3529)">
                <path d="M118.47,280.955L118.345,315.649" style="fill:none;stroke:rgb(36,184,160);stroke-width:4.4px;"/>
            </g>
            <g transform="matrix(0.999935,0.00359454,0.00359454,0.801117,11.6227,76.1477)">
                <path d="M118.47,280.955L118.345,315.649" style="fill:none;stroke:rgb(36,184,160);stroke-width:4.4px;"/>
            </g>
            <g transform="matrix(0.999935,0.00359454,0.00359454,0.801117,23.3274,47.9311)">
                <path d="M118.47,280.955L118.345,315.649" style="fill:none;stroke:rgb(36,184,160);stroke-width:4.4px;"/>
            </g>
            <g transform="matrix(0.999935,0.00359454,0.00359454,0.801117,30.4338,60.2628)">
                <path d="M118.47,280.955L118.345,315.649" style="fill:none;stroke:rgb(36,184,160);stroke-width:4.4px;"/>
            </g>
            <g transform="matrix(0.999935,0.00359454,0.00359454,0.801117,42.1385,69.4593)">
                <path d="M118.47,280.955L118.345,315.649" style="fill:none;stroke:rgb(36,184,160);stroke-width:4.4px;"/>
            </g>
            <g transform="matrix(0.999935,0.00359454,0.00359454,0.801117,51.9621,54.6195)">
                <path d="M118.47,280.955L118.345,315.649" style="fill:none;stroke:rgb(36,184,160);stroke-width:4.4px;"/>
            </g>
            <g transform="matrix(1,0,0,1,-11.4635,17.3779)">
                <path d="M197.115,140.047C227.084,143.392 237.901,153.765 237.901,153.765C253.682,133.732 290.533,139.403 300.401,151.756C318.581,174.517 315.588,192.419 315.588,192.419C317.202,194.839 354.618,184.229 357.853,223.282C361.987,273.176 54.817,280.824 54.817,230.759C54.817,215.865 60.254,193.546 79.511,184.875C100.555,175.4 131.009,188.71 131.009,188.71C123.813,185.388 155.368,135.388 197.115,140.047Z" style="fill:rgb(36,184,160);stroke:rgb(36,184,160);stroke-width:8px;"/>
            </g>
        </g>
        <g transform="matrix(1,0,0,1,-6.9399,-129.774)">
            <g transform="matrix(0.999935,0.00359454,0.00359454,0.801117,591.213,455.286)">
                <path d="M118.618,239.762L118.345,315.649" style="fill:none;stroke:rgb(36,184,160);stroke-width:4.4px;"/>
            </g>
            <g transform="matrix(0.999935,0.00359454,0.00359454,0.801117,626.671,454.457)">
                <path d="M118.398,300.928L118.345,315.649" style="fill:none;stroke:rgb(36,184,160);stroke-width:4.4px;"/>
            </g>
            <g transform="matrix(0.999935,0.00359454,0.00359454,0.801117,579.394,455.286)">
                <path d="M118.47,280.955L118.345,315.649" style="fill:none;stroke:rgb(36,184,160);stroke-width:4.4px;"/>
            </g>
            <g transform="matrix(0.999935,0.00359454,0.00359454,0.801117,635.795,454.249)">
                <path d="M118.55,258.486L118.345,315.649" style="fill:none;stroke:rgb(36,184,160);stroke-width:4.4px;"/>
            </g>
            <g transform="matrix(0.999935,0.00359454,0.00359454,0.801117,611.741,456.323)">
                <path d="M118.51,269.721L118.345,315.649" style="fill:none;stroke:rgb(36,184,160);stroke-width:4.4px;"/>
            </g>
            <g transform="matrix(0.999935,0.00359454,0.00359454,0.801117,644.504,455.908)">
                <path d="M118.452,285.948L118.345,315.649" style="fill:none;stroke:rgb(36,184,160);stroke-width:4.4px;"/>
            </g>
            <g transform="matrix(0.999935,0.00359454,0.00359454,0.801117,659.019,454.871)">
                <path d="M118.488,275.962L118.345,315.649" style="fill:none;stroke:rgb(36,184,160);stroke-width:4.4px;"/>
            </g>
            <g transform="matrix(0.999935,0.00932079,0.00359454,2.07733,560.684,53.4229)">
                <path d="M118.463,282.881L118.345,315.649" style="fill:none;"/>
            </g>
            <g transform="matrix(-0.00932079,0.999935,-2.07733,0.00359454,1336.97,590.761)">
                <path d="M118.539,261.699L118.345,315.649" style="fill:none;"/>
            </g>
            <g transform="matrix(1,0,0,1,7.78924,123.676)">
                <path d="M668.366,514.488L668.366,590.557L788.436,590.557L788.436,582.557L676.366,582.557L676.366,514.488L668.366,514.488Z" style="fill:rgb(36,184,160);"/>
            </g>
        </g>
        <g transform="matrix(1,0,0,1,-6.9399,-129.774)">
            <path d="M397.447,579.475L397.447,674.226L397.388,674.226C396.886,694.184 380.525,710.233 360.446,710.233L162.154,710.233C141.759,710.233 125.2,693.674 125.2,673.279L125.245,673.279L125.245,529.645C127.375,534.406 130.167,539.342 133.289,544.17C143.315,559.676 158.441,575.601 162.994,579.492L162.994,663.925C162.994,668.125 168.23,673.129 172.428,673.279L350.25,673.279C354.676,673.058 359.561,668.355 359.698,663.925L359.698,529.666C361.824,534.408 364.606,539.323 367.715,544.131C377.741,559.637 392.867,575.562 397.421,579.453L397.447,579.475ZM685.979,477.717L685.973,477.726L755.375,581.734C758.639,586.98 760.451,591.267 760.451,597.445L772.3,597.445L772.3,633.745L704.9,633.745L704.9,597.445L716.785,597.445C716.785,592.6 714.409,585.869 712.035,581.646L665.772,506.701L665.763,506.717L645.366,477.728L645.368,477.726L568.855,367.159C562.789,359.477 555.16,355.461 545.387,354.904L403.451,354.904C400.147,354.904 396.019,358.157 396.019,361.461L396.019,387.045L396.042,387.017L397.447,440.525L397.447,516.411C398.269,533.802 426.014,562.61 449.276,562.61C467.368,562.61 481.754,555.435 492.432,541.083C503.111,526.732 508.45,505.409 508.45,477.114C508.45,452.22 503.145,432.563 492.534,418.143C481.924,403.724 467.368,396.514 448.868,396.514C428.238,396.514 412.264,404.772 400.944,421.291L400.017,386L400.031,382.556C415.03,367.433 435.05,364.478 460.091,364.478C486.617,364.478 507.6,374.477 523.04,394.474C538.48,414.471 546.199,442.289 546.199,477.93L546.199,481.399C546.199,514.999 538.514,542.069 523.142,562.61C507.77,583.151 486.957,593.422 460.703,593.422C434.041,593.422 413.034,590.945 397.683,574.175L397.447,573.916L397.447,573.922L397.409,573.888C392.975,570.099 380.836,557.056 371.073,541.959C364.893,532.402 360.154,522.424 359.698,514.472L359.698,354.559L359.702,354.559C359.887,334.499 376.23,318.271 396.333,318.271C396.333,318.271 390.333,318.271 542.493,318.271C564.794,318.271 581.865,324.749 591.801,341.559L665.16,449.159L665.162,449.157L685.979,477.717ZM165.547,382.587C180.551,367.436 200.581,364.478 225.638,364.478C252.164,364.478 273.147,374.477 288.587,394.474C304.027,414.471 311.747,442.289 311.747,477.93L311.747,481.399C311.747,514.999 304.061,542.069 288.689,562.61C273.317,583.151 252.504,593.422 226.25,593.422C199.451,593.422 178.366,590.92 162.994,573.916L162.994,573.938L162.983,573.927C158.549,570.138 146.41,557.096 136.648,541.998C130.304,532.188 125.478,521.934 125.245,513.884L125.245,354.571L109.7,354.571L109.7,318.271L177.1,318.271L177.1,354.571L161.566,354.571L161.566,382.241C161.554,382.329 161.547,382.418 161.547,382.51L161.528,387.079C161.528,387.099 161.528,387.119 161.529,387.14L162.994,442.948L162.994,515.411C164.021,535.558 187.897,562.61 214.823,562.61C232.915,562.61 247.301,555.435 257.98,541.083C268.658,526.732 273.997,505.409 273.997,477.114C273.997,452.22 268.692,432.563 258.082,418.143C247.471,403.724 232.915,396.514 214.415,396.514C193.746,396.514 177.751,404.804 166.43,421.381L165.528,387.065L165.547,382.587ZM643.129,481.081L663.364,510.602L614.76,589.341L570.889,589.341L643.129,481.081ZM688.207,474.351L667.576,445.182L714.132,368.559L758.207,368.559L688.207,474.351Z" style="fill:rgb(64,64,64);"/>
        </g>
    </g>
</svg>
